<?xml version="1.0" standalone="no"?>
<!DOCTYPE svg PUBLIC "-//W3C//DTD SVG 20010904//EN"
 "http://www.w3.org/TR/2001/REC-SVG-20010904/DTD/svg10.dtd">
<svg version="1.0" xmlns="http://www.w3.org/2000/svg"
 width="225.000000pt" height="225.000000pt" viewBox="0 0 225.000000 225.000000"
 preserveAspectRatio="xMidYMid meet">
<metadata>
Created by potrace 1.11, written by Peter Selinger 2001-2013
</metadata>
<g transform="translate(0.000000,225.000000) scale(0.100000,-0.100000)"
fill="#000000" stroke="none">
<path d="M1650 1940 c21 -21 26 -45 11 -54 -5 -3 -11 3 -14 14 -7 26 -37 26
-37 0 0 -11 -5 -20 -11 -20 -18 0 11 -31 38 -41 29 -11 41 -38 22 -50 -10 -6
-21 -1 -36 17 -21 22 -23 23 -23 6 0 -27 -29 -51 -40 -33 -5 9 -10 10 -14 2
-4 -6 -3 -11 2 -11 29 0 13 -321 -16 -339 -6 -3 -14 -19 -17 -34 -4 -15 -11
-27 -16 -27 -5 0 -9 -7 -9 -15 0 -19 -21 -58 -37 -68 -7 -4 -13 -15 -13 -22 0
-8 -4 -15 -9 -15 -5 0 -26 -16 -45 -35 -20 -19 -39 -35 -43 -35 -3 0 -14 -6
-22 -14 -25 -22 -111 -68 -135 -71 -11 -2 -39 -7 -61 -11 -50 -11 -168 -11
-217 -1 -29 6 -36 11 -31 25 6 14 4 15 -9 4 -9 -7 -14 -21 -11 -31 3 -10 0
-22 -6 -25 -7 -5 -8 -1 -4 10 5 13 2 15 -15 9 -13 -3 -22 -2 -22 4 0 5 -20 8
-45 7 -43 -2 -77 15 -61 31 6 6 66 -6 108 -22 13 -5 15 -2 11 14 -3 12 -12 21
-20 21 -8 0 -11 -5 -7 -12 5 -8 2 -9 -12 -3 -10 4 -35 11 -54 14 -24 5 -35 12
-34 23 1 10 -5 16 -17 15 -11 -1 -19 -9 -19 -19 0 -22 -26 -14 -60 20 -14 13
-34 28 -45 33 -19 7 -19 8 1 8 12 1 36 -12 53 -28 17 -16 33 -25 36 -20 3 5
-3 16 -15 26 -11 10 -20 27 -21 38 0 11 -3 14 -6 8 -8 -21 -39 -15 -39 6 0 11
5 17 10 14 5 -4 6 4 3 18 -4 13 -7 29 -7 34 0 6 -5 3 -10 -5 -8 -12 -10 -11
-10 6 0 12 -7 24 -15 28 -8 3 -15 13 -15 21 0 12 6 15 23 10 15 -4 11 0 -12
15 -18 11 -36 18 -39 15 -4 -3 0 -10 7 -14 9 -6 10 -11 2 -15 -6 -4 -11 -3
-11 1 0 5 -15 17 -34 27 -41 22 -72 10 -82 -32 -4 -15 -13 -36 -20 -47 -8 -11
-15 -38 -16 -60 l-1 -40 -6 45 c-5 35 -3 48 10 60 9 8 20 29 23 45 4 17 17 38
29 47 18 14 19 18 5 18 -9 0 -23 3 -32 6 -12 5 -16 0 -16 -20 0 -14 -4 -26
-10 -26 -5 0 -10 -7 -10 -16 0 -8 5 -12 11 -8 8 4 8 0 0 -15 -16 -29 -19 -27
-20 17 0 20 -2 65 -4 100 -2 34 0 62 5 62 4 0 2 15 -6 33 -11 29 -12 42 -1 83
8 27 14 45 14 41 1 -11 31 19 31 31 0 15 45 52 64 52 9 0 14 4 11 10 -3 5 1
20 9 32 20 28 20 38 1 38 -8 0 -15 -5 -15 -11 0 -13 -41 -48 -57 -49 -17 0
-80 -77 -124 -152 -50 -85 -105 -250 -117 -353 -44 -362 118 -722 423 -944 70
-51 185 -117 218 -125 15 -4 25 -11 22 -16 -3 -6 1 -7 10 -3 10 3 20 1 24 -5
13 -22 164 -44 306 -45 135 -1 275 17 275 35 0 4 6 8 13 8 6 0 21 7 32 16 27
20 4 35 -38 23 -17 -5 -37 -4 -47 1 -9 5 -34 6 -55 3 -30 -5 -36 -3 -31 8 3 8
9 21 12 29 3 9 27 26 54 38 27 12 52 31 55 42 6 19 16 24 43 21 6 -1 12 5 12
13 0 8 -6 17 -12 20 -7 3 8 5 33 3 31 -1 45 2 42 9 -4 10 38 25 115 39 18 4
58 20 90 36 65 33 77 35 69 14 -4 -8 -2 -17 4 -21 14 -8 -20 -45 -35 -37 -6 3
-5 0 2 -8 30 -31 209 204 270 354 52 130 66 203 66 362 0 131 -4 162 -27 250
-42 156 -142 344 -218 410 -20 18 -19 16 4 -16 15 -20 27 -45 27 -55 0 -11 6
-26 13 -33 10 -11 9 -13 -5 -8 -12 4 -18 1 -18 -8 0 -20 -6 -19 -42 6 -25 18
-32 19 -39 8 -9 -15 -6 -80 5 -98 5 -7 5 -23 2 -37 -5 -19 -13 -24 -40 -24
-28 0 -36 5 -49 33 -9 17 -19 44 -22 60 -6 24 -5 27 19 27 37 0 33 23 -10 58
-20 16 -32 32 -26 36 5 3 7 27 4 54 -2 31 0 52 7 56 6 4 11 13 11 19 0 15 -47
67 -60 67 -6 0 -1 -9 10 -20z m-10 -40 c0 -5 -4 -10 -10 -10 -5 0 -10 5 -10
10 0 6 5 10 10 10 6 0 10 -4 10 -10z m-13 -126 c-3 -3 -12 -4 -19 -1 -8 3 -5
6 6 6 11 1 17 -2 13 -5z m283 -177 c0 -22 15 -34 47 -41 25 -6 32 -4 36 11 5
24 50 -73 73 -159 22 -82 22 -194 -1 -238 -16 -31 -18 -33 -31 -16 -15 21 -44
15 -44 -9 0 -9 -9 -15 -24 -15 -14 0 -27 -4 -30 -9 -3 -4 -28 -11 -55 -15 -27
-3 -55 -14 -62 -23 -8 -9 -9 -14 -3 -10 7 4 15 0 18 -9 8 -21 1 -28 -16 -18
-31 20 -36 10 -8 -16 16 -15 30 -33 30 -39 0 -6 11 -17 25 -23 20 -9 28 -8 43
5 10 10 27 17 37 17 12 0 5 -7 -20 -20 -43 -22 -81 -18 -90 11 -3 10 -20 30
-37 44 -28 24 -31 33 -35 92 -2 36 -8 73 -13 82 -12 23 2 122 26 180 13 33 14
46 6 49 -17 5 -15 37 2 52 8 6 13 17 10 24 -3 7 7 18 21 24 14 6 25 17 25 24
0 6 12 24 27 40 25 27 43 29 43 5z m-1452 -422 c-6 -14 -13 -23 -16 -21 -7 7
9 46 18 46 5 0 4 -11 -2 -25z m-101 -21 c-3 -3 -12 -4 -19 -1 -8 3 -5 6 6 6
11 1 17 -2 13 -5z m75 -26 c-8 -8 -9 -15 -1 -25 7 -8 8 -13 1 -13 -15 0 -22
26 -9 39 6 6 13 11 16 11 3 0 0 -5 -7 -12z m67 -80 c0 -7 -4 -22 -9 -33 -7
-16 -9 -14 -7 13 1 17 5 32 9 32 4 0 8 -6 7 -12z m1535 3 c4 -5 -3 -7 -14 -4
-23 6 -26 13 -6 13 8 0 17 -4 20 -9z m-1348 -120 c-8 -12 -46 -21 -46 -11 0 5
8 11 18 13 29 8 33 7 28 -2z m109 -22 c30 -14 49 -18 60 -11 17 9 17 10 99
-60 25 -21 57 -37 89 -43 38 -8 56 -18 74 -42 24 -31 24 -31 2 -26 -12 3 -24
14 -26 24 -5 18 -38 32 -101 43 -18 3 -31 2 -28 -2 6 -10 -31 -9 -62 2 -14 4
-21 13 -18 21 6 16 -18 27 -39 19 -8 -4 -15 -1 -15 5 0 6 5 11 10 11 6 0 10 3
10 8 0 9 -74 42 -96 42 -8 0 -13 4 -10 9 4 5 0 12 -6 14 -10 4 -10 6 0 6 7 1
32 -8 57 -20z m-160 -19 c-3 -5 -12 -10 -18 -10 -7 0 -6 4 3 10 19 12 23 12
15 0z m87 -12 c-9 -9 -15 -9 -24 0 -9 9 -7 12 12 12 19 0 21 -3 12 -12z m323
-128 c3 -5 1 -10 -4 -10 -6 0 -11 5 -11 10 0 6 2 10 4 10 3 0 8 -4 11 -10z
m255 -106 c30 -4 62 -11 70 -16 12 -7 10 -8 -5 -4 -11 2 -47 7 -81 11 -33 4
-67 11 -75 17 -10 7 -8 8 11 4 14 -3 50 -9 80 -12z m90 -125 c-6 -11 -17 -22
-24 -25 -8 -3 -16 -22 -20 -42 -9 -54 -57 -102 -104 -102 -37 0 -41 -3 -90
-68 -11 -15 -31 -25 -60 -29 -36 -5 -42 -3 -42 13 0 16 -9 19 -48 22 -51 2
-102 19 -102 33 0 5 -7 9 -15 9 -8 0 -26 12 -40 26 -14 14 -32 23 -40 20 -11
-4 -15 2 -15 19 0 15 -10 31 -26 41 -17 12 -21 19 -13 24 16 10 50 0 42 -13
-3 -5 -1 -7 5 -4 5 4 31 -2 57 -13 26 -11 60 -20 76 -20 16 0 29 -4 29 -10 0
-5 16 -14 37 -19 31 -9 39 -8 53 9 9 11 32 21 51 22 19 1 40 8 47 15 7 7 22
13 33 13 10 0 19 4 19 9 0 5 18 12 40 16 22 4 40 11 40 16 0 5 11 9 24 9 12 0
38 11 57 24 42 30 42 30 29 5z m-50 -143 c0 -2 -8 -10 -17 -17 -16 -13 -17
-12 -4 4 13 16 21 21 21 13z"/>
<path d="M520 1940 c-9 -6 -10 -10 -3 -10 6 0 15 5 18 10 8 12 4 12 -15 0z"/>
<path d="M1540 1946 c0 -2 12 -11 26 -21 17 -11 25 -12 22 -4 -4 11 -48 34
-48 25z"/>
<path d="M1780 1886 c0 -3 15 -15 33 -27 23 -17 28 -18 18 -6 -14 18 -51 42
-51 33z"/>
<path d="M1553 1837 c-1 -11 5 -29 13 -41 17 -25 19 -14 2 14 -11 17 -10 22 0
29 11 7 11 9 0 14 -9 3 -14 -3 -15 -16z"/>
<path d="M1841 1736 c13 -14 26 -23 28 -20 6 6 -30 44 -42 44 -5 0 1 -11 14
-24z"/>
<path d="M438 1453 c-26 -7 -22 -20 11 -38 20 -10 32 -11 36 -5 4 6 16 8 27 4
12 -4 18 -2 14 4 -3 5 -17 12 -31 14 -13 3 -22 1 -19 -3 3 -5 0 -9 -5 -9 -15
0 -14 27 2 33 15 7 -11 7 -35 0z"/>
<path d="M602 1355 c0 -16 2 -22 5 -12 2 9 2 23 0 30 -3 6 -5 -1 -5 -18z"/>
<path d="M597 1280 c-3 -11 -1 -20 4 -20 5 0 9 9 9 20 0 11 -2 20 -4 20 -2 0
-6 -9 -9 -20z"/>
<path d="M668 1183 c7 -3 16 -2 19 1 4 3 -2 6 -13 5 -11 0 -14 -3 -6 -6z"/>
<path d="M1773 474 c0 -16 13 -19 21 -5 3 5 0 11 -7 14 -8 3 -14 -1 -14 -9z"/>
</g>
</svg>
